<svg width="64" height="64" viewBox="0 0 64 64" fill="none" xmlns="http://www.w3.org/2000/svg">
  <defs>
    <radialGradient id="bg" cx="50%" cy="35%" r="75%">
      <stop offset="0%" stop-color="#111827"/>
      <stop offset="100%" stop-color="#050816"/>
    </radialGradient>
    <linearGradient id="flame" x1="32" y1="8" x2="32" y2="56" gradientUnits="userSpaceOnUse">
      <stop offset="0%" stop-color="#FFF3C4"/>
      <stop offset="45%" stop-color="#FFD700"/>
      <stop offset="100%" stop-color="#EF4444"/>
    </linearGradient>
  </defs>
  <rect width="64" height="64" rx="16" fill="url(#bg)"/>
  <circle cx="32" cy="32" r="24" fill="none" stroke="#8B5CF6" stroke-opacity="0.4" stroke-width="1.5"/>
  <circle cx="32" cy="32" r="19" fill="none" stroke="#38BDF8" stroke-opacity="0.35" stroke-width="1.5" stroke-dasharray="4 4"/>
  <path d="M32 12c4 8-3 11-3 17 0 3 2 5 5 5 4 0 6-3 6-7 5 4 8 9 8 15 0 9-7 15-16 15S16 51 16 42c0-8 6-13 9-19 2-4 5-7 7-11z" fill="url(#flame)"/>
</svg>
